<svg width="512" height="512" viewBox="0 0 512 512" fill="none" xmlns="http://www.w3.org/2000/svg">
<path d="M160.141 171.756L70.8625 224.045L160.141 276.335L249.419 328.624V285.05L197.34 254.257L145.261 223.464L197.34 192.672L249.419 161.879V119.467L160.141 171.756Z" fill="#1793CE"/>
<path d="M351.287 171.756L262.009 119.467V163.041L314.088 193.834L366.167 224.626L314.088 255.419L262.009 286.212V329.786L351.287 277.497L440.565 225.207L351.287 171.756Z" fill="#1793CE"/>
<path d="M53.6936 233.922L17.0667 255.419L249.991 392.533L250.563 350.702L53.6936 233.922Z" fill="#1793CE"/>
<path d="M458.306 233.922L494.933 256L262.009 392.533L261.437 350.702L458.306 233.922Z" fill="#1793CE"/>
</svg>
